# xmcd
#
# Track frame offsets: 
#        150
#        14792
#        32096
#        47776
#        59926
#        78431
#        92455
#        107743
#        120331
#        137559
#        151423
#        166374
#        177215
#        195697
#        229115
#        246045
#        262035
#        282578
#        297224
#        312520
#        329450
#
# Disc length: 4645 seconds
#
# Revision: 0
# Processed by: cddbd v1.5.2PL0 Copyright (c) Steve Scherf et al.
# Submitted via: ExactAudioCopy v0.99pb4
#
DISCID=35122315
DTITLE=Dwight Yoakam - Reprise Please Baby - CD4
DYEAR=1900
DGENRE=Country
TTITLE0=1. This Drinkin' Will Kill Me
TTITLE1=2. It Won't Hurt
TTITLE2=3. I'll Be Gone
TTITLE3=4. Floyd County
TTITLE4=5. You're The One
TTITLE5=6. Twenty Years
TTITLE6=7. Please Daddy
TTITLE7=8. Miner's Prayer
TTITLE8=9. I Sang Dixie
TTITLE9=10. Bury Me
TTITLE10=11. Golden Ring (with Kelly Willis)
TTITLE11=12. Take Me (with Kelly Willis)
TTITLE12=13. Sin City (Live)
TTITLE13=14. Truckin' (Live)
TTITLE14=15. Grand Tour (Live)
TTITLE15=16. Oh Lonesome Me (Live)
TTITLE16=17. Today I Started Loving You Again (Live)
TTITLE17=18. Mystery Train (Live)
TTITLE18=19. Can't You Hear Me Calling (Live)
TTITLE19=20. Heartaches By The Number (Live)
TTITLE20=21. My Bucket's Got A Hole In It (Live)
EXTD=
EXTT0=
EXTT1=
EXTT2=
EXTT3=
EXTT4=
EXTT5=
EXTT6=
EXTT7=
EXTT8=
EXTT9=
EXTT10=
EXTT11=
EXTT12=
EXTT13=
EXTT14=
EXTT15=
EXTT16=
EXTT17=
EXTT18=
EXTT19=
EXTT20=
PLAYORDER=
